<svg width="159" height="159" viewBox="0 0 159 159" fill="none" xmlns="http://www.w3.org/2000/svg">
<circle cx="79.0761" cy="79.0761" r="79.0761" fill="#53B175"/>
<g filter="url(#filter0_d_1_1834)">
<circle cx="79.0762" cy="79.0762" r="68.1416" stroke="white" stroke-opacity="0.7" stroke-width="2"/>
</g>
<path d="M114.217 61.7765C114.217 63.9297 113.372 66.0086 111.836 67.4935L76.1189 102.093C74.5058 103.577 72.3552 104.468 70.1277 104.468C67.9002 104.468 65.7495 103.577 64.2133 102.093L46.3165 84.793C44.7803 83.3081 43.9354 81.2292 43.9354 79.076C43.9354 76.9229 44.8571 74.9182 46.3933 73.359C48.0064 71.8741 50.0802 71.0574 52.3077 70.9831C54.5352 70.9831 56.6091 71.7998 58.2221 73.2848L70.1277 84.793L99.93 55.9852C101.543 54.5003 103.617 53.6836 105.844 53.6836C108.072 53.7578 110.146 54.5746 111.759 56.1337C113.295 57.6187 114.217 59.6233 114.217 61.7765Z" fill="white"/>
<defs>
<filter id="filter0_d_1_1834" x="5.93457" y="8.93457" width="146.283" height="146.283" filterUnits="userSpaceOnUse" color-interpolation-filters="sRGB">
<feFlood flood-opacity="0" result="BackgroundImageFix"/>
<feColorMatrix in="SourceAlpha" type="matrix" values="0 0 0 0 0 0 0 0 0 0 0 0 0 0 0 0 0 0 127 0" result="hardAlpha"/>
<feOffset dy="3"/>
<feGaussianBlur stdDeviation="2"/>
<feColorMatrix type="matrix" values="0 0 0 0 0 0 0 0 0 0 0 0 0 0 0 0 0 0 0.12 0"/>
<feBlend mode="normal" in2="BackgroundImageFix" result="effect1_dropShadow_1_1834"/>
<feBlend mode="normal" in="SourceGraphic" in2="effect1_dropShadow_1_1834" result="shape"/>
</filter>
</defs>
</svg>
